<svg version="1.2" xmlns="http://www.w3.org/2000/svg" viewBox="0 0 36 36" width="35" height="32">
	<title>panel-svg</title>
	<defs>
		<clipPath clipPathUnits="userSpaceOnUse" id="cp1">
			<path d="m0 2h35.26v32h-35.26z"/>
		</clipPath>
	</defs>
	<style>
		.s0 { fill: #77849d } 
		.s1 { fill: none;stroke: #77849d;stroke-miterlimit:10;stroke-width: 2.2 } 
	</style>
	<g id="Clip-Path: Untitled" clip-path="url(#cp1)">
		<g id="Untitled">
			<g id="Layer">
				<path id="Layer" class="s0" d="m4.5 2c-2.5 0-4.5 2-4.5 4.5v23c0 2.5 2 4.5 4.5 4.5h26.2c2.5 0 4.6-2 4.6-4.5v-23c0-2.5-2.1-4.5-4.6-4.5zm0 2.5h26.2c1.2 0 2.1 0.9 2.1 2v23c0 1.1-0.9 2-2.1 2h-26.2c-1.1 0-2-0.9-2-2v-23c0-1.1 0.9-2 2-2z"/>
				<path id="Layer" class="s1" d="m12.7 3.2v29.5"/>
			</g>
		</g>
	</g>
</svg>