<?xml version="1.0" encoding="UTF-8" standalone="no"?>
<!DOCTYPE svg PUBLIC "-//W3C//DTD SVG 1.1//EN" "http://www.w3.org/Graphics/SVG/1.1/DTD/svg11.dtd">
<!-- Created with Vectornator (http://vectornator.io/) -->
<svg height="100%" stroke-miterlimit="10" style="fill-rule:nonzero;clip-rule:evenodd;stroke-linecap:round;stroke-linejoin:round;" version="1.1" viewBox="0 0 28 28" width="100%" xml:space="preserve" xmlns="http://www.w3.org/2000/svg" xmlns:vectornator="http://vectornator.io" xmlns:xlink="http://www.w3.org/1999/xlink">
<defs/>
<g id="Untitled" vectornator:layerName="Untitled">
<path d="M14.0015 18.3097C12.3743 18.3097 10.784 18.7063 9.35681 19.4877C7.92945 20.2693 6.55869 21.3047 5.6822 22.6756L5.31788 23.5939L6.09201 24.1998C8.35656 25.961 11.1326 26.926 14.0015 26.926C16.8703 26.926 19.6465 25.961 21.911 24.1998L23.1743 23.4679L22.1803 22.7524C21.3039 21.3816 20.0736 20.2693 18.6462 19.4877C17.219 18.7063 15.6286 18.3097 14.0015 18.3097ZM14.0015 19.3868C15.4478 19.3868 16.8727 19.7355 18.1414 20.4301C19.4101 21.1248 20.4925 22.1398 21.2715 23.3583C19.1961 24.9725 16.6309 25.849 14.0015 25.849C11.3721 25.849 8.80704 24.9725 6.7315 23.3583C7.51061 22.1397 8.5929 21.1248 9.86168 20.4301C11.1303 19.7355 12.5551 19.3868 14.0015 19.3868ZM14.0015 1.04338C11.5097 1.04338 9.05904 1.77625 6.9671 3.13014C4.87521 4.48403 3.04054 6.37475 2.01998 8.64798C0.999433 10.9212 0.665973 13.525 1.04435 15.9879C1.42271 18.4509 2.49868 20.7222 4.15454 22.5842L5.40464 23.6861L5.94145 22.9922L6.27981 22.5969C7.36033 21.031 8.73676 19.9791 10.504 19.2744L13.9654 18.305L10.6694 17.1317C9.79002 16.4391 9.13298 15.4796 8.81824 14.4054C8.5035 13.3312 8.55272 12.1984 8.91922 11.1407C9.28576 10.083 9.95942 9.16448 10.8713 8.51535C11.7834 7.86619 12.8821 7.50562 14.0015 7.50562C15.1209 7.50562 16.2197 7.8662 17.1317 8.51535C18.0436 9.16448 18.7173 10.0831 19.0838 11.1407C19.4503 12.1984 19.4995 13.3312 19.1848 14.4054C18.8701 15.4796 18.1121 16.439 17.2327 17.1317L13.6404 18.2712L17.4772 19.2023C17.8606 19.3551 18.1081 19.5006 18.4271 19.6961C19.5785 20.4017 20.5933 21.1907 21.4395 22.417L21.9933 22.9553L22.7524 23.5939L23.6612 22.5842C25.317 20.7222 26.413 18.4166 26.7913 15.9537C27.1698 13.4907 26.8022 10.9569 25.7816 8.68363C24.7611 6.41039 23.1278 4.48403 21.0359 3.13014C18.944 1.77624 16.4932 1.04338 14.0015 1.04338ZM14.0015 2.12042C16.2856 2.12042 18.5125 2.79782 20.4301 4.0389C22.3476 5.27995 23.87 7.03738 24.8055 9.12117C25.7411 11.205 26.0612 13.5277 25.7143 15.7853C25.3675 18.043 24.3713 20.1368 22.8534 21.8437C21.6522 20.103 19.9712 18.7564 18.0068 17.9731C19.062 17.1419 19.8169 15.9974 20.1945 14.7083C20.5722 13.4193 20.5333 12.0733 20.0935 10.8041C19.6537 9.53487 18.8319 8.41923 17.7375 7.64025C16.6432 6.86128 15.3447 6.42858 14.0015 6.42858C12.6582 6.42858 11.3599 6.86127 10.2655 7.64025C9.17122 8.4192 8.34933 9.53487 7.90951 10.8041C7.46969 12.0733 7.43083 13.4193 7.80854 14.7083C8.18625 15.9974 8.94101 17.1419 9.99626 17.9731C8.03167 18.7565 6.35077 20.1031 5.1496 21.8437C3.63171 20.1368 2.63555 18.0431 2.28871 15.7853C1.94187 13.5277 2.26195 11.205 3.19746 9.12117C4.13296 7.03738 5.65537 5.27996 7.57294 4.0389C9.49051 2.79782 11.7173 2.12042 14.0015 2.12042ZM14.0015 7.77155e-16C10.2889 0.0039945 6.73109 1.48134 4.10621 4.10621C1.48128 6.73115 0.00392027 10.2893 0 14.0015C0.000115074 16.7712 0.817629 19.4741 2.35602 21.7764C3.89453 24.0789 6.09156 25.8663 8.64997 26.926C11.2084 27.9857 14.0116 28.274 16.7278 27.7338C19.4438 27.1935 21.9387 25.855 23.8968 23.8968C25.855 21.9387 27.1936 19.4437 27.7338 16.7278C28.274 14.0118 27.9857 11.1747 26.926 8.61632C25.8664 6.05795 24.079 3.89458 21.7764 2.35602C19.4739 0.817564 16.7707 6.06016e-05 14.0015 7.77155e-16ZM14.0016 1.22054C16.5571 1.2206 18.856 2.03261 20.9814 3.45272C23.1069 4.87292 24.7635 6.8176 25.7416 9.17918C26.6412 11.351 26.8159 13.6356 26.4693 15.9534C26.4391 16.1559 26.2834 16.5682 26.2433 16.7696C25.7922 19.0378 24.9572 20.7482 23.4231 22.4633C23.2615 22.644 23.3286 22.9504 23.1563 23.1227C23.0074 23.2716 18.752 25.7673 16.4682 26.2216C15.6318 26.388 14.8196 26.5037 13.9744 26.5026C12.286 26.5002 10.7329 26.3901 9.15914 25.7382C8.08641 25.2939 7.19021 24.6328 6.28551 23.9315C5.19852 23.0888 4.03985 22.3305 3.26478 21.1705C1.84473 19.0454 1.30559 16.5358 1.30548 13.9798C1.3091 10.5534 2.60331 7.44482 5.02654 5.02159C7.44972 2.59842 10.5747 1.22423 14.0016 1.22054ZM12.5355 7.42042C11.4908 7.62821 10.689 8.16894 9.93588 8.92211C9.18277 9.67522 8.60089 10.6116 8.39311 11.6562C8.18532 12.7008 8.31628 14.0696 8.72388 15.0537C9.13149 16.0376 10.1204 16.8092 11.006 17.4009C11.8916 17.9927 12.8659 18.4578 13.9311 18.4578C15.3593 18.4578 16.8655 17.9626 17.8755 16.9527C18.8855 15.9428 19.6408 14.3999 19.6408 12.9715C19.6408 11.9066 19.3097 10.7362 18.7179 9.85048C18.3513 9.30186 17.9158 8.62263 17.3812 8.244C17.0529 8.01149 16.4972 7.7471 16.1228 7.59203C15.4677 7.32067 14.7107 7.16331 14.0128 7.16377C13.6624 7.164 12.8846 7.35098 12.5355 7.42042ZM13.1601 8.68363C13.9959 8.51739 14.8636 8.59317 15.6508 8.91922C16.438 9.24533 17.0958 9.82633 17.5692 10.5348C18.0426 11.2434 18.3097 12.0725 18.3097 12.9244C18.3097 14.0671 17.8723 15.1457 17.0643 15.9537C16.2564 16.7616 15.1441 17.2327 14.0015 17.2327C13.1493 17.2327 12.3203 16.9655 11.6119 16.4922C10.9034 16.0187 10.356 15.3609 10.0299 14.5737C9.70383 13.7865 9.59446 12.9188 9.76071 12.083C9.92687 11.2473 10.3362 10.4641 10.9387 9.86168C11.5412 9.25916 12.3244 8.84983 13.1601 8.68363Z" fill="#77849d" fill-rule="nonzero" opacity="1" stroke="none" vectornator:layerName="Curve 1"/>
</g>
</svg>
