<?xml version="1.0" encoding="UTF-8" standalone="no"?>
<!DOCTYPE svg PUBLIC "-//W3C//DTD SVG 1.1//EN" "http://www.w3.org/Graphics/SVG/1.1/DTD/svg11.dtd">
<svg height="100%" stroke-miterlimit="10" style="fill-rule:nonzero;clip-rule:evenodd;stroke-linecap:round;stroke-linejoin:round;" version="1.1" viewBox="0 0 32 32" width="100%" xml:space="preserve" xmlns="http://www.w3.org/2000/svg" xmlns:vectornator="http://vectornator.io" xmlns:xlink="http://www.w3.org/1999/xlink">
<defs/>
<g id="Untitled" vectornator:layerName="Untitled">
<path d="M16.0017 20.9254C14.1421 20.9254 12.3246 21.3786 10.6935 22.2717C9.06223 23.1649 7.49565 24.3483 6.49395 25.915L6.07758 26.9645L6.9623 27.6569C9.55036 29.6697 12.723 30.7726 16.0017 30.7726C19.2804 30.7726 22.4532 29.6697 25.0412 27.6569L26.4849 26.8205C26.4849 26.8205 25.3489 26.0028 25.3489 26.0028C24.3473 24.4361 22.9413 23.1649 21.31 22.2717C19.6789 21.3786 17.8613 20.9254 16.0017 20.9254ZM16.0017 22.1563C17.6546 22.1563 19.2831 22.5549 20.733 23.3487C22.183 24.1427 23.42 25.3026 24.3103 26.6952C21.9384 28.54 19.0067 29.5417 16.0017 29.5417C12.9967 29.5417 10.0652 28.54 7.69315 26.6952C8.58356 25.3025 9.82046 24.1427 11.2705 23.3487C12.7203 22.5549 14.3487 22.1563 16.0017 22.1563ZM16.0017 1.19244C13.1539 1.19244 10.3532 2.03 7.96241 3.57731C5.57167 5.12461 3.4749 7.28543 2.30855 9.88341C1.14221 12.4814 0.761112 15.4571 1.19354 18.2719C1.62596 21.0867 2.85564 23.6825 4.74805 25.8105L6.17674 27.0699L6.79023 26.2768L7.17693 25.825C8.41181 24.0355 9.98488 22.8333 12.0046 22.0279L15.9605 20.92C15.9605 20.92 12.1936 19.5791 12.1936 19.5791C11.1886 18.7875 10.4377 17.691 10.078 16.4633C9.71829 15.2357 9.77454 13.941 10.1934 12.7322C10.6123 11.5234 11.3822 10.4737 12.4244 9.73183C13.4667 8.98994 14.7224 8.57786 16.0017 8.57786C17.281 8.57786 18.5368 8.98995 19.5791 9.73183C20.6213 10.4737 21.3912 11.5235 21.8101 12.7322C22.2289 13.941 22.2852 15.2357 21.9255 16.4633C21.5658 17.691 20.6995 18.7874 19.6945 19.5791L15.589 20.8814L19.974 21.9455C20.4121 22.1201 20.695 22.2864 21.0595 22.5098C22.3755 23.3163 23.5352 24.218 24.5023 25.6194L25.1352 26.2346L26.0028 26.9645L27.0414 25.8105C28.9337 23.6825 30.1863 21.0475 30.6187 18.2328C31.0512 15.418 30.6311 12.5222 29.4647 9.92416C28.2984 7.32617 26.4318 5.12461 24.0411 3.57731C21.6503 2.02999 18.8494 1.19244 16.0017 1.19244ZM16.0017 2.42334C18.6121 2.42334 21.1571 3.19751 23.3487 4.61589C25.5401 6.03423 27.28 8.04272 28.3492 10.4242C29.4184 12.8057 29.7842 15.4602 29.3878 18.0404C28.9914 20.6206 27.8529 23.0135 26.1182 24.9643C24.7454 22.9749 22.8243 21.4359 20.5792 20.5407C21.7852 19.5908 22.6479 18.2827 23.0794 16.8095C23.5111 15.3364 23.4667 13.7981 22.964 12.3475C22.4614 10.897 21.5222 9.62198 20.2714 8.73172C19.0208 7.84147 17.5368 7.34695 16.0017 7.34695C14.4665 7.34695 12.9828 7.84146 11.732 8.73172C10.4814 9.62195 9.5421 10.897 9.03945 12.3475C8.53679 13.7981 8.49238 15.3363 8.92405 16.8095C9.35572 18.2827 10.2183 19.5908 11.4243 20.5407C9.17906 21.436 7.25803 22.975 5.88526 24.9643C4.15053 23.0135 3.01206 20.6207 2.61567 18.0404C2.21928 15.4602 2.58509 12.8057 3.65424 10.4242C4.72339 8.04273 6.46328 6.03424 8.65479 4.61589C10.8463 3.19751 13.3912 2.42334 16.0017 2.42334ZM16.0017 8.88178e-16C11.7587 0.00456515 7.69268 1.69296 4.69282 4.69282C1.69289 7.69275 0.00448031 11.7592 0 16.0017C0.000131513 19.1671 0.934434 22.2561 2.6926 24.8873C4.45089 27.5188 6.96179 29.5615 9.88569 30.7726C12.8096 31.9837 16.0133 32.3132 19.1175 31.6958C22.2215 31.0783 25.0728 29.5486 27.3107 27.3107C29.5486 25.0728 31.0784 22.2214 31.6958 19.1175C32.3132 16.0135 31.9837 12.7711 30.7726 9.84723C29.5616 6.92338 27.5189 4.45095 24.8873 2.6926C22.2559 0.93436 19.1665 6.9259e-05 16.0017 8.88178e-16ZM16.0018 1.3949C18.9224 1.39497 21.5497 2.32298 23.9788 3.94597C26.4079 5.56906 28.3012 7.79155 29.419 10.4905C30.4471 12.9726 30.6468 15.5836 30.2507 18.2325C30.2161 18.4639 30.0382 18.9351 29.9924 19.1653C29.4768 21.7575 28.5225 23.7123 26.7693 25.6724C26.5846 25.8789 26.6613 26.2291 26.4644 26.426C26.2942 26.5961 21.4309 29.4484 18.8208 29.9676C17.8649 30.1577 16.9367 30.29 15.9707 30.2887C14.0411 30.286 12.2662 30.1601 10.4676 29.4151C9.24162 28.9073 8.21739 28.1518 7.18345 27.3503C5.94117 26.3872 4.61697 25.5206 3.73118 24.1949C2.10826 21.7662 1.4921 18.8981 1.49198 15.9769C1.49612 12.061 2.97521 8.50837 5.74462 5.73896C8.51397 2.96962 12.0854 1.39912 16.0018 1.3949ZM14.3263 8.48049C13.1324 8.71796 12.216 9.33594 11.3553 10.1967C10.4946 11.0574 9.8296 12.1275 9.59213 13.3214C9.35466 14.5152 9.50433 16.0796 9.97015 17.2042C10.436 18.3287 11.5662 19.2105 12.5783 19.8868C13.5904 20.5631 14.7039 21.0946 15.9213 21.0946C17.5535 21.0946 19.2749 20.5287 20.4291 19.3745C21.5834 18.2204 22.4466 16.457 22.4466 14.8246C22.4466 13.6075 22.0682 12.27 21.3919 11.2577C20.9729 10.6307 20.4752 9.85444 19.8642 9.42172C19.489 9.15599 18.8539 8.85383 18.4261 8.67661C17.6774 8.36648 16.8122 8.18665 16.0146 8.18717C15.6142 8.18743 14.7253 8.40112 14.3263 8.48049ZM15.0401 9.92416C15.9953 9.73417 16.987 9.82077 17.8866 10.1934C18.7863 10.5661 19.5381 11.2301 20.0791 12.0398C20.6201 12.8496 20.9254 13.7972 20.9254 14.7708C20.9254 16.0767 20.4255 17.3094 19.5021 18.2328C18.5788 19.1561 17.3075 19.6945 16.0017 19.6945C15.0278 19.6945 14.0803 19.3892 13.2707 18.8482C12.461 18.3071 11.8354 17.5553 11.4628 16.6557C11.0901 15.756 10.9651 14.7643 11.1551 13.8092C11.345 12.8541 11.8128 11.959 12.5014 11.2705C13.1899 10.5819 14.085 10.1141 15.0401 9.92416Z" fill="#77849d" fill-rule="nonzero" opacity="1" stroke="none" vectornator:layerName="Curve 1"/>
</g>
</svg>
