<?xml version="1.0" encoding="UTF-8" standalone="no"?>
<!DOCTYPE svg PUBLIC "-//W3C//DTD SVG 1.1//EN" "http://www.w3.org/Graphics/SVG/1.1/DTD/svg11.dtd">
<!-- Created with Vectornator (http://vectornator.io/) -->
<svg height="100%" stroke-miterlimit="10" style="fill-rule:nonzero;clip-rule:evenodd;stroke-linecap:round;stroke-linejoin:round;" version="1.1" viewBox="0 0 32 32" width="100%" xml:space="preserve" xmlns="http://www.w3.org/2000/svg" xmlns:vectornator="http://vectornator.io" xmlns:xlink="http://www.w3.org/1999/xlink">
<defs/>
<clipPath id="ArtboardFrame">
<rect height="32" width="32" x="0" y="0"/>
</clipPath>
<g clip-path="url(#ArtboardFrame)" id="Untitled" vectornator:layerName="Untitled">
<path d="M16.0023 8.65939C17.4537 8.65939 18.8725 9.08977 20.0792 9.89611C21.286 10.7025 22.2266 11.8485 22.782 13.1894C23.3374 14.5304 23.4827 16.0059 23.1996 17.4294C22.9164 18.8529 22.2176 20.1604 21.1913 21.1867C20.165 22.213 18.8575 22.9118 17.434 23.195C16.0105 23.4782 14.535 23.3328 13.194 22.7774C11.8531 22.222 10.7071 21.2815 9.9007 20.0747C9.09436 18.8679 8.66398 17.4491 8.66398 15.9977C8.66599 14.052 9.43978 12.1867 10.8155 10.811C12.1913 9.43519 14.0566 8.66141 16.0023 8.65939ZM16.0023 20.8899C16.9699 20.8899 17.9157 20.6029 18.7203 20.0654C19.5248 19.5279 20.1518 18.7638 20.5221 17.8699C20.8924 16.976 20.9893 15.9923 20.8005 15.0433C20.6117 14.0943 20.1458 13.2225 19.4617 12.5384C18.7774 11.8542 17.9057 11.3883 16.9567 11.1995C16.0078 11.0107 15.0241 11.1076 14.1301 11.4779C13.2362 11.8482 12.4722 12.4753 11.9346 13.2798C11.397 14.0843 11.1101 15.0301 11.1101 15.9977C11.1101 17.2952 11.6255 18.5395 12.543 19.4571C13.4604 20.3745 14.7048 20.8899 16.0023 20.8899ZM2.54871 16.3279C2.54259 16.1077 2.54259 15.8876 2.54871 15.6674L0.267707 12.8177C0.148106 12.6681 0.0653194 12.4925 0.0260189 12.305C-0.0132817 12.1176-0.00799786 11.9235 0.0414433 11.7384C0.415375 10.3328 0.974736 8.98326 1.7048 7.72528C1.80038 7.56065 1.93308 7.42061 2.09234 7.3163C2.25158 7.21199 2.43298 7.1463 2.62209 7.12446L6.24844 6.72085C6.39928 6.56185 6.55217 6.40897 6.70709 6.2622L7.13516 2.62668C7.15717 2.43742 7.2231 2.25593 7.32768 2.09668C7.43226 1.93741 7.5726 1.8048 7.73751 1.70939C8.99597 0.980667 10.3454 0.421865 11.7507 0.0475586C11.9358-0.00167399 12.13-0.00670946 12.3174 0.032858C12.5049 0.0724254 12.6806 0.155489 12.83 0.275352L15.672 2.54412C15.8922 2.54412 16.1123 2.54412 16.3325 2.54412L19.1822 0.267708C19.3319 0.148107 19.5075 0.0653203 19.6949 0.0260194C19.8824-0.0132814 20.0765-0.00799847 20.2615 0.0414432C21.667 0.416045 23.0165 0.975371 24.2748 1.7048C24.4394 1.80038 24.5794 1.93308 24.6837 2.09234C24.7879 2.25158 24.8537 2.43297 24.8755 2.62208L25.2791 6.25455C25.4381 6.40641 25.591 6.5593 25.7378 6.71319L29.3733 7.13057C29.5626 7.15259 29.7441 7.21851 29.9034 7.32309C30.0626 7.42766 30.1952 7.56801 30.2906 7.73292C31.0193 8.99139 31.5781 10.3408 31.9525 11.7461C32.0016 11.9312 32.0067 12.1254 31.9672 12.3128C31.9275 12.5003 31.8445 12.676 31.7246 12.8254L29.4559 15.6674C29.4559 15.8876 29.4559 16.1077 29.4559 16.3279L31.7323 19.1776C31.8519 19.3273 31.9347 19.5029 31.974 19.6903C32.0133 19.8778 32.008 20.0719 31.9586 20.2569C31.5846 21.6626 31.0253 23.0121 30.2952 24.2701C30.1996 24.4348 30.0669 24.5748 29.9077 24.6791C29.7484 24.7835 29.567 24.8491 29.3779 24.8709L25.7516 25.2745C25.5997 25.4335 25.4468 25.5864 25.2929 25.7332L24.8694 29.3687C24.8474 29.558 24.7815 29.7395 24.6769 29.8988C24.5723 30.058 24.432 30.1906 24.267 30.286C23.0086 31.0148 21.6591 31.5735 20.254 31.9479C20.0688 31.997 19.8746 32.0022 19.6871 31.9625C19.4996 31.923 19.3241 31.8399 19.1746 31.72L16.3325 29.4512C16.1123 29.4574 15.8922 29.4574 15.672 29.4512L12.8223 31.7322C12.6727 31.8519 12.4971 31.9347 12.3096 31.9739C12.1222 32.0133 11.9281 32.008 11.743 31.9585C10.3374 31.5846 8.98785 31.0253 7.72987 30.2951C7.56523 30.1996 7.42519 30.0669 7.32089 29.9077C7.21659 29.7484 7.15089 29.5671 7.12904 29.3779L6.72544 25.7515C6.56644 25.6007 6.41356 25.4478 6.26679 25.2929L2.63126 24.8648C2.44201 24.8428 2.26052 24.7769 2.10126 24.6723C1.94201 24.5677 1.80938 24.4274 1.71397 24.2624C0.985253 23.004 0.426452 21.6545 0.0521438 20.2494C0.00291027 20.0642-0.0021239 19.87 0.0374425 19.6825C0.0770091 19.4951 0.160075 19.3195 0.279939 19.17L2.54871 16.3279ZM5.0101 15.3342C4.98411 15.7762 4.98411 16.2193 5.0101 16.6612C5.02831 16.9637 4.93351 17.2623 4.74409 17.499L2.5747 20.2096C2.82362 21.0007 3.14236 21.7681 3.52715 22.5028L6.98228 22.8942C7.28317 22.9276 7.56098 23.0714 7.76197 23.2978C8.05625 23.6288 8.36968 23.9422 8.70067 24.2365C8.92707 24.4375 9.07087 24.7153 9.10428 25.0162L9.48801 28.4683C10.2226 28.8532 10.9901 29.172 11.7812 29.4207L14.4934 27.2513C14.7104 27.0779 14.9799 26.9836 15.2578 26.9837L15.3312 26.9837C15.7731 27.0098 16.2162 27.0098 16.6582 26.9837C16.9608 26.9655 17.2593 27.0604 17.496 27.2497L20.2142 29.4207C21.0053 29.1718 21.7728 28.853 22.5074 28.4683L22.8988 25.0177C22.9322 24.7168 23.076 24.439 23.3024 24.238C23.6334 23.9437 23.9469 23.6302 24.2411 23.2993C24.4421 23.0729 24.7199 22.9291 25.0208 22.8957L28.4729 22.5104C28.8578 21.7758 29.1766 21.0084 29.4253 20.2172L27.2559 17.5051C27.0665 17.2684 26.9717 16.9699 26.9899 16.6673C27.0159 16.2254 27.0159 15.7823 26.9899 15.3403C26.9717 15.0377 27.0665 14.7391 27.2559 14.5025L29.4253 11.7858C29.1764 10.9947 28.8577 10.2273 28.4729 9.49258L25.0223 9.10122C24.7214 9.06781 24.4437 8.92399 24.2426 8.69761C23.9483 8.36663 23.6349 8.05319 23.3039 7.75891C23.0767 7.55778 22.9322 7.27934 22.8988 6.97769L22.515 3.52715C21.7805 3.14217 21.013 2.82343 20.2218 2.5747L17.5097 4.74409C17.273 4.93352 16.9745 5.02831 16.6719 5.0101C16.23 4.98411 15.7869 4.98411 15.3449 5.0101C15.0423 5.02831 14.7437 4.93352 14.5071 4.74409L11.7904 2.5747C10.9993 2.82363 10.2319 3.14235 9.49718 3.52715L9.1058 6.97769C9.0724 7.27857 8.9286 7.55639 8.7022 7.75739C8.37121 8.05166 8.05778 8.3651 7.7635 8.69608C7.56251 8.92247 7.2847 9.06628 6.98381 9.09969L3.53174 9.48342C3.14677 10.218 2.82802 10.9855 2.57928 11.7766L4.74867 14.4888C4.93992 14.7274 5.03483 15.029 5.01469 15.3342L5.0101 15.3342Z" fill="#77849d" fill-rule="nonzero" opacity="1" stroke="#77849d" stroke-linecap="butt" stroke-linejoin="miter" stroke-opacity="0" stroke-width="2" vectornator:layerName="path"/>
</g>
</svg>
