<?xml version="1.0" encoding="UTF-8" standalone="no"?>
<!DOCTYPE svg PUBLIC "-//W3C//DTD SVG 1.1//EN" "http://www.w3.org/Graphics/SVG/1.1/DTD/svg11.dtd">
<!-- Created with Vectornator (http://vectornator.io/) -->
<svg height="100%" stroke-miterlimit="10" style="fill-rule:nonzero;clip-rule:evenodd;stroke-linecap:round;stroke-linejoin:round;" version="1.1" viewBox="0 0 28 28" width="100%" xml:space="preserve" xmlns="http://www.w3.org/2000/svg" xmlns:vectornator="http://vectornator.io" xmlns:xlink="http://www.w3.org/1999/xlink">
<defs/>
<clipPath id="ArtboardFrame">
<rect height="28" width="28" x="0" y="0"/>
</clipPath>
<g clip-path="url(#ArtboardFrame)" id="Untitled" vectornator:layerName="Untitled">
<path d="M14.002 7.57696C15.272 7.57696 16.5135 7.95355 17.5693 8.6591C18.6252 9.36465 19.4483 10.3675 19.9343 11.5407C20.4202 12.7141 20.5474 14.0051 20.2996 15.2507C20.0519 16.4963 19.4404 17.6404 18.5424 18.5384C17.6444 19.4363 16.5003 20.0478 15.2547 20.2956C14.0092 20.5434 12.7181 20.4162 11.5448 19.9302C10.3715 19.4443 9.36867 18.6213 8.66312 17.5654C7.95756 16.5094 7.58098 15.2679 7.58098 13.998C7.58274 12.2955 8.25981 10.6634 9.4636 9.45959C10.6674 8.2558 12.2996 7.57873 14.002 7.57696ZM14.002 18.2786C14.8487 18.2786 15.6763 18.0276 16.3802 17.5572C17.0842 17.0869 17.6329 16.4184 17.9568 15.6362C18.2808 14.854 18.3656 13.9932 18.2005 13.1629C18.0352 12.3325 17.6276 11.5697 17.029 10.9711C16.4302 10.3724 15.6675 9.96472 14.8371 9.79955C14.0068 9.63438 13.1461 9.71916 12.3639 10.0432C11.5817 10.3671 10.9131 10.9159 10.4427 11.6198C9.97238 12.3238 9.72132 13.1513 9.72132 13.998C9.72132 15.1333 10.1723 16.2221 10.9751 17.0249C11.7778 17.8277 12.8667 18.2786 14.002 18.2786ZM2.23012 14.2869C2.22477 14.0943 2.22477 13.9016 2.23012 13.709L0.234244 11.2155C0.129593 11.0846 0.0571544 10.9309 0.0227665 10.7669C-0.0116215 10.6029-0.00699813 10.433 0.0362629 10.2711C0.363453 9.04123 0.852894 7.86036 1.4917 6.75962C1.57533 6.61556 1.69145 6.49303 1.83079 6.40177C1.97013 6.31049 2.12886 6.25301 2.29433 6.2339L5.46739 5.88074C5.59937 5.74162 5.73314 5.60785 5.8687 5.47943L6.24326 2.29834C6.26253 2.13274 6.32021 1.97394 6.41172 1.83459C6.50323 1.69524 6.62602 1.5792 6.77032 1.49571C7.87148 0.858084 9.05225 0.369132 10.2818 0.0416138C10.4439-0.00146474 10.6137-0.00587078 10.7778 0.0287508C10.9418 0.0633722 11.0955 0.136053 11.2263 0.240933L13.713 2.22611C13.9057 2.22611 14.0983 2.22611 14.2909 2.22611L16.7844 0.234244C16.9154 0.129593 17.0691 0.0571553 17.233 0.022767C17.3971-0.0116212 17.5669-0.00699866 17.7289 0.0362628C18.9586 0.364039 20.1394 0.85345 21.2404 1.4917C21.3845 1.57534 21.507 1.69145 21.5983 1.8308C21.6895 1.97013 21.747 2.12885 21.7661 2.29432L22.1192 5.47273C22.2584 5.60561 22.3921 5.73938 22.5206 5.87404L25.7016 6.23925C25.8673 6.25851 26.0261 6.31619 26.1655 6.40771C26.3048 6.4992 26.4208 6.62201 26.5043 6.76631C27.1419 7.86746 27.6308 9.04824 27.9584 10.2778C28.0014 10.4398 28.0058 10.6097 27.9713 10.7737C27.9366 10.9378 27.8639 11.0915 27.759 11.2222L25.7739 13.709C25.7739 13.9016 25.7739 14.0943 25.7739 14.2869L27.7658 16.7804C27.8704 16.9114 27.9429 17.0651 27.9773 17.229C28.0116 17.3931 28.007 17.5629 27.9638 17.7248C27.6365 18.9548 27.1471 20.1356 26.5083 21.2364C26.4246 21.3804 26.3085 21.503 26.1692 21.5942C26.0299 21.6855 25.8712 21.743 25.7057 21.762L22.5326 22.1152C22.3997 22.2543 22.266 22.3881 22.1313 22.5165L21.7607 25.6976C21.7415 25.8633 21.6838 26.0221 21.5923 26.1614C21.5008 26.3007 21.378 26.4168 21.2337 26.5002C20.1326 27.1379 18.9517 27.6268 17.7222 27.9544C17.5602 27.9974 17.3903 28.0019 17.2262 27.9672C17.0621 27.9327 16.9086 27.8599 16.7778 27.755L14.2909 25.7698C14.0983 25.7752 13.9057 25.7752 13.713 25.7698L11.2195 27.7657C11.0887 27.8704 10.935 27.9428 10.7709 27.9772C10.6069 28.0116 10.4371 28.007 10.2751 27.9637C9.04524 27.6365 7.86437 27.1471 6.76364 26.5083C6.61958 26.4247 6.49704 26.3086 6.40578 26.1692C6.31452 26.0299 6.25703 25.8712 6.23791 25.7056L5.88476 22.5326C5.74563 22.4006 5.61186 22.2668 5.48344 22.1313L2.30235 21.7567C2.13676 21.7374 1.97795 21.6797 1.83861 21.5882C1.69926 21.4967 1.58321 21.374 1.49973 21.2296C0.862097 20.1285 0.373146 18.9477 0.0456258 17.7182C0.00254648 17.5562-0.00185841 17.3862 0.0327622 17.2222C0.0673829 17.0582 0.140065 16.9045 0.244947 16.7738L2.23012 14.2869ZM4.38384 13.4174C4.3611 13.8041 4.3611 14.1919 4.38384 14.5785C4.39977 14.8433 4.31683 15.1045 4.15108 15.3116L2.25286 17.6834C2.47067 18.3756 2.74957 19.0471 3.08626 19.69L6.10949 20.0324C6.37278 20.0616 6.61585 20.1875 6.79173 20.3856C7.04922 20.6752 7.32347 20.9495 7.61308 21.2069C7.81118 21.3828 7.93701 21.6259 7.96624 21.8892L8.30201 24.9097C8.94477 25.2465 9.6163 25.5255 10.3086 25.7431L12.6817 23.8449C12.8716 23.6932 13.1074 23.6107 13.3506 23.6108L13.4148 23.6108C13.8014 23.6336 14.1892 23.6336 14.5759 23.6108C14.8407 23.5948 15.1019 23.6779 15.309 23.8435L17.6874 25.7431C18.3796 25.5253 19.0512 25.2464 19.694 24.9097L20.0365 21.8905C20.0657 21.6272 20.1915 21.3842 20.3896 21.2082C20.6792 20.9507 20.9535 20.6765 21.211 20.3869C21.3868 20.1888 21.63 20.0629 21.8932 20.0337L24.9138 19.6966C25.2506 19.0539 25.5296 18.3823 25.7471 17.69L23.849 15.3169C23.6832 15.1099 23.6002 14.8486 23.6162 14.5839C23.6389 14.1972 23.6389 13.8095 23.6162 13.4227C23.6002 13.158 23.6832 12.8967 23.849 12.6897L25.7471 10.3126C25.5293 9.62036 25.2505 8.94886 24.9138 8.30601L21.8945 7.96356C21.6312 7.93434 21.3882 7.8085 21.2123 7.61041C20.9548 7.3208 20.6805 7.04654 20.3909 6.78905C20.1921 6.61306 20.0657 6.36943 20.0365 6.10548L19.7006 3.08626C19.0579 2.7494 18.3864 2.4705 17.6941 2.25286L15.321 4.15108C15.1139 4.31683 14.8527 4.39977 14.5879 4.38384C14.2012 4.3611 13.8135 4.3611 13.4268 4.38384C13.162 4.39977 12.9008 4.31683 12.6937 4.15108L10.3166 2.25286C9.62438 2.47067 8.95289 2.74956 8.31003 3.08626L7.96758 6.10548C7.93835 6.36875 7.81252 6.61184 7.61442 6.78771C7.32481 7.04521 7.05056 7.31946 6.79306 7.60907C6.61719 7.80716 6.37411 7.933 6.11083 7.96223L3.09027 8.29799C2.75342 8.94076 2.47451 9.61228 2.25687 10.3046L4.15509 12.6777C4.32243 12.8865 4.40548 13.1504 4.38785 13.4174L4.38384 13.4174Z" fill="#77849d" fill-rule="nonzero" opacity="1" stroke="#77849d" stroke-linecap="butt" stroke-linejoin="miter" stroke-opacity="0" stroke-width="2" vectornator:layerName="path"/>
</g>
</svg>
